PathFileType	4	(X/Y/Z)	C:\Users\WrightLab\Desktop\Jo\P1_boxCal30.trc
DataRate	CameraRate	NumFrames	NumMarkers	Units	OrigDataRate	OrigDataStartFrame	OrigNumFrames
100.00	100.00	       13	19	mm	100.00	241	       481
Frame#	Time	Headset_Front			Headset_Back			Headset_Left			Headset_Right			Left_Shoulder			Right_Shoulder			Sternum			C7			Left Elbow			Right Elbow			Left Wrist			Right Wrist			Left ASIS			Right ASIS			S2			Left Knee			Right Knee			Left Ankle			Right Ankle			
		X1	Y1	Z1	X2	Y2	Z2	X3	Y3	Z3	X4	Y4	Z4	X5	Y5	Z5	X6	Y6	Z6	X7	Y7	Z7	X8	Y8	Z8	X9	Y9	Z9	X10	Y10	Z10	X11	Y11	Z11	X12	Y12	Z12	X13	Y13	Z13	X14	Y14	Z14	X15	Y15	Z15	X16	Y16	Z16	X17	Y17	Z17	X18	Y18	Z18	X19	Y19	Z19	

241	2.400	-509.90546	1418.60107	1136.11755	-577.21240	1511.76404	855.15192	-442.98868	1464.27588	948.12518	-636.98682	1445.10535	1061.03430	-372.84296	1284.34314	865.78802	-739.57416	1271.58716	971.67297	-532.99335	1179.44763	1051.75818	-575.84515	1281.32251	807.92950	-288.53229	966.01105	824.29016	-827.82178	1006.48877	903.28180	-213.25323	787.65271	937.50153	-919.59021	787.45764	945.86810	-422.39392	897.07037	1028.90698	-615.43182	892.55316	1080.43335	-594.37756	901.28156	750.04425	-406.43710	453.61157	823.75909	-680.94983	496.46008	1104.90967	-471.48578	107.94028	705.77032				
242	2.410	-508.25644	1417.49829	1148.32043	-576.06409	1510.10669	865.99884	-441.72574	1462.40820	958.60388	-636.23737	1442.98779	1071.81372	-372.04843	1282.82605	875.76965	-738.39819	1269.75281	982.67572	-531.51276	1179.16858	1065.45764	-576.02020	1279.83545	818.48004	-287.33948	964.40887	837.28693	-826.86200	1005.23224	912.19757	-211.46860	787.32196	950.31323	-920.77057	787.27930	951.04785	-419.83273	895.89575	1039.57935	-612.11151	890.06830	1092.03357	-594.43304	899.10144	761.11383	-404.79840	453.32434	832.14587	-678.25488	494.49069	1118.13196	-472.24240	109.32989	707.04266				
243	2.420	-507.97684	1415.58044	1159.20667	-575.18713	1508.49121	876.81366	-441.19000	1461.05310	968.47778	-635.07617	1440.88867	1082.30603	-371.06473	1281.80664	885.44061	-737.62610	1268.09058	993.77313	-529.92279	1178.25159	1075.67346	-575.13672	1277.23389	829.73297	-285.35034	963.12872	848.12665	-825.36719	1003.84393	921.84790	-210.16052	787.29340	963.51208	-920.63794	786.10565	956.58368	-417.63110	895.86725	1052.21106	-609.64636	889.27991	1104.55664	-592.70282	895.69482	773.69055	-404.42865	452.97000	839.88989	-674.33307	493.44739	1132.00977	-472.14886	111.72559	708.07874				
244	2.430	-507.27924	1414.03040	1169.90601	-574.32098	1507.05420	887.54742	-440.44833	1459.35791	979.25623	-634.85614	1439.48364	1093.10852	-370.43555	1280.55408	896.45935	-736.90198	1266.43713	1004.85846	-528.41492	1176.26294	1085.22668	-574.60803	1275.45776	840.49182	-285.63504	961.06458	861.48914	-824.40985	1002.60681	931.40649	-208.64168	786.36682	975.75879	-921.07977	786.17853	962.29987	-414.80896	895.63885	1063.24622	-606.75659	888.24957	1117.02893	-591.08612	894.01276	784.70490	-403.35913	453.16495	847.93884	-670.61224	493.17645	1145.62024	-471.91422	114.76390	708.25641				
245	2.440	-506.61017	1412.76428	1180.52307	-573.53149	1505.77417	898.18219	-439.62469	1457.91382	990.84308	-633.83398	1438.26855	1103.67517	-369.57251	1278.75073	907.26068	-736.21625	1264.90759	1015.93878	-527.13202	1175.41321	1095.25378	-573.73486	1273.45984	851.68292	-286.20291	959.70660	874.46442	-824.03564	1001.84357	941.63361	-207.89835	785.72833	987.89642	-920.35217	784.66852	969.33746	-412.48795	895.41510	1075.38867	-604.43774	888.50537	1129.35242	-589.59473	890.50500	796.74835	-402.52747	452.53574	856.80652	-666.67004	493.00864	1159.22681	-470.93600	117.29236	710.73981				
246	2.450	-505.25107	1411.36780	1191.12878	-572.86578	1504.60107	908.75427	-438.94522	1456.60229	1001.44598	-633.31982	1437.69910	1114.40588	-369.47531	1277.97729	917.72528	-735.75317	1263.41748	1027.05420	-526.68384	1175.97131	1107.87134	-573.25433	1271.42163	862.77185	-286.56552	958.85394	884.98590	-823.32916	1000.30389	951.71521	-207.43544	784.65338	999.70746	-920.69653	783.92474	975.66077	-409.63083	895.95587	1088.10010	-602.15369	888.21106	1142.18408	-588.70898	888.40027	808.66431	-402.22787	452.93851	866.49066	-662.46741	492.17664	1172.62952	-469.41238	121.54182	711.77368				
247	2.460	-505.05170	1411.23779	1201.85254	-572.37146	1503.50513	919.23761	-438.39041	1455.87793	1010.91632	-632.64783	1437.15747	1125.19812	-369.01047	1277.11035	928.35083	-735.41052	1262.02930	1038.09753	-525.79657	1174.59814	1117.92773	-573.42273	1269.83691	873.75598	-286.45074	957.99072	896.32880	-822.46594	999.00537	962.40521	-207.11620	784.35693	1010.50250	-920.57642	783.39435	984.22235	-408.35715	896.05536	1100.25537	-599.95404	887.88678	1154.87061	-587.16296	885.73730	821.17877	-401.33475	453.03629	877.62720	-658.58521	490.87677	1186.12207	-469.10873	124.67239	714.83783				
248	2.470	-503.63309	1410.88953	1212.38110	-572.04187	1502.35120	929.56738	-437.87253	1454.52417	1021.51019	-631.47009	1436.64465	1135.75916	-368.77039	1275.91943	939.38367	-735.27582	1261.04211	1049.38245	-524.89417	1176.44873	1134.26563	-572.89508	1267.84839	885.27667	-286.97046	956.63043	907.69275	-821.50385	997.78479	973.04333	-207.69989	783.19788	1021.06409	-919.73395	782.24384	992.55566	-407.01578	895.99231	1113.36621	-598.36310	888.13660	1168.37903	-585.36536	883.87354	833.82996	-400.50989	451.05750	888.60083	-654.76599	489.05191	1199.57385	-467.95691	128.77489	717.38782				
249	2.480	-503.40717	1411.61707	1223.10046	-571.75696	1501.22400	939.83594	-437.63577	1454.01184	1031.51501	-631.63770	1436.95886	1146.75122	-368.95319	1275.60034	949.73010	-735.03107	1260.03967	1060.65955	-524.59827	1176.25610	1144.51062	-573.15326	1266.53809	896.31366	-287.96149	955.05359	916.90051	-821.71008	997.64685	983.39227	-206.97287	782.96564	1032.37048	-919.37061	782.29779	1001.82178	-405.31802	895.96069	1126.35400	-597.29095	888.41669	1182.05798	-584.31927	882.33978	846.73303	-398.44009	450.78992	901.61053	-650.65125	486.17944	1213.03088	-466.58087	133.73668	720.96967				
250	2.490	-502.82962	1411.03467	1231.05676	-571.61792	1500.41418	950.09875	-436.89252	1453.30762	1043.60266	-632.43237	1437.97180	1157.94482	-368.71902	1275.03418	961.16125	-734.76477	1259.23962	1071.94910	-523.70020	1177.26294	1157.17151	-572.32843	1265.23303	908.01624	-289.18549	954.43842	927.16522	-820.36871	996.50378	994.65308	-207.51414	782.16644	1042.06787	-918.55511	781.11700	1011.99969	-403.64236	896.02576	1140.35205	-595.91608	888.35571	1195.48120	-582.76483	881.44843	860.18268	-396.07724	450.19656	915.08997	-646.30273	482.93417	1226.01282	-465.16165	139.10143	724.41791				
251	2.500	-502.42639	1413.02832	1242.30554	-571.53979	1499.91602	960.31732	-436.82428	1453.42749	1051.98401	-631.90698	1439.03772	1168.65588	-368.39145	1274.87207	971.71637	-734.52594	1258.77380	1083.45081	-524.06171	1177.94348	1169.00818	-572.11542	1264.00061	919.51904	-290.44302	953.55463	936.11145	-819.64020	996.26587	1005.75885	-208.43925	781.43787	1052.69995	-918.01855	781.21613	1021.75323	-402.68967	895.96832	1153.19507	-594.83875	888.84973	1209.40857	-581.56537	880.21985	873.82294	-392.34238	449.60382	928.87585	-642.62097	481.05737	1239.18262	-463.11206	145.23358	729.86694				
252	2.510	-500.74887	1413.79675	1251.97668	-571.41315	1499.61316	970.51367	-436.36850	1453.62231	1062.61877	-631.44629	1440.33350	1179.53284	-368.74527	1275.01172	982.79474	-734.24872	1258.39380	1095.05432	-523.61169	1177.58728	1179.48962	-572.20959	1263.25525	932.01068	-291.27863	953.74945	944.38300	-818.75525	995.92059	1016.72900	-207.94528	781.04553	1061.13525	-916.60260	780.34314	1033.25293	-401.16989	897.35303	1167.60754	-593.40533	889.16736	1222.50781	-579.44763	879.04517	887.71039	-387.78845	449.45273	945.23004	-640.13159	480.43948	1251.80518	-460.50525	151.31566	736.23792				
253	2.520	-499.69574	1417.24915	1265.60242				-436.09116	1454.26343	1072.33203	-630.37085	1441.65039	1190.22046	-368.04373	1275.49988	994.28589	-733.95593	1258.48511	1106.78650	-522.68060	1179.34741	1193.86780	-572.61566	1263.57910	942.84497	-293.21875	953.44312	954.21301	-817.31647	995.37036	1028.58325	-208.04132	780.82770	1070.49146	-915.43622	780.43750	1045.05750	-400.56058	898.43207	1181.60840	-591.76227	890.22083	1236.35938	-578.77881	879.04858	901.51288	-383.43076	449.24945	960.23975	-638.24677	480.28720	1263.80884	-458.30594	157.46138	744.24945				
